<svg width="51" height="10" viewBox="0 0 51 10" fill="none" xmlns="http://www.w3.org/2000/svg">
<path d="M15.2148 8C16.418 8 17.1641 7.375 17.1641 6.38672C17.1641 5.66016 16.6211 5.09766 15.875 5.04297V4.97266C16.4531 4.88672 16.8945 4.36719 16.8945 3.76953C16.8945 2.89844 16.2422 2.36328 15.1484 2.36328H12.6836V8H15.2148ZM13.8633 3.26562H14.8477C15.4102 3.26562 15.7344 3.53516 15.7344 3.98438C15.7344 4.4375 15.3867 4.69922 14.75 4.69922H13.8633V3.26562ZM13.8633 7.09766V5.49609H14.8867C15.582 5.49609 15.9609 5.76953 15.9609 6.28516C15.9609 6.8125 15.5938 7.09766 14.9141 7.09766H13.8633ZM19.9805 4.46875C20.5117 4.46875 20.8555 4.82422 20.8789 5.39453H19.043C19.082 4.83594 19.4531 4.46875 19.9805 4.46875ZM20.9023 6.77344C20.7812 7.05859 20.4727 7.21875 20.0234 7.21875C19.4297 7.21875 19.0547 6.82031 19.0391 6.17969V6.12109H21.9961V5.77344C21.9961 4.40625 21.2461 3.59766 19.9766 3.59766C18.6953 3.59766 17.9062 4.46484 17.9062 5.86719C17.9062 7.26562 18.6797 8.09375 19.9922 8.09375C21.0469 8.09375 21.793 7.58203 21.9609 6.77344H20.9023ZM22.832 4.95703C22.832 5.62109 23.2383 6.01953 24.0742 6.20312L24.8555 6.37891C25.2344 6.46094 25.3984 6.58984 25.3984 6.80078C25.3984 7.07812 25.0938 7.26172 24.6523 7.26172C24.1992 7.26172 23.9219 7.09375 23.8359 6.80078H22.7266C22.8047 7.62891 23.4922 8.09375 24.6289 8.09375C25.7578 8.09375 26.5273 7.53125 26.5273 6.67188C26.5273 6.02734 26.1523 5.67578 25.3164 5.49219L24.5078 5.31641C24.1094 5.22656 23.9258 5.09766 23.9258 4.88672C23.9258 4.61328 24.2266 4.42969 24.6328 4.42969C25.0547 4.42969 25.3164 4.60156 25.375 4.87891H26.4258C26.3633 4.05469 25.7188 3.59766 24.625 3.59766C23.5508 3.59766 22.832 4.14062 22.832 4.95703ZM27.7617 2.66797V3.73438H27.0898V4.62891H27.7617V6.83594C27.7617 7.67578 28.1758 8.01562 29.2227 8.01562C29.4414 8.01562 29.6523 7.99219 29.793 7.96484V7.09766C29.6836 7.10938 29.6055 7.11328 29.457 7.11328C29.0703 7.11328 28.8984 6.94141 28.8984 6.56641V4.62891H29.793V3.73438H28.8984V2.66797H27.7617ZM34.0977 3.31641H35.1211C35.707 3.31641 36.0742 3.65234 36.0742 4.1875C36.0742 4.73047 35.7266 5.05078 35.1328 5.05078H34.0977V3.31641ZM34.0977 5.95703H35.0625L36.1133 8H37.4492L36.2617 5.77344C36.9102 5.51562 37.2852 4.89062 37.2852 4.17188C37.2852 3.05078 36.5234 2.36328 35.2852 2.36328H32.918V8H34.0977V5.95703ZM39.8906 7.21094C39.4961 7.21094 39.2188 7.01562 39.2188 6.69531C39.2188 6.38672 39.457 6.21094 39.9453 6.17578L40.8164 6.12109V6.4375C40.8164 6.875 40.418 7.21094 39.8906 7.21094ZM39.5156 8.06641C40.0742 8.06641 40.543 7.83203 40.7656 7.4375H40.8359V8H41.9375V5.05859C41.9375 4.13672 41.293 3.59766 40.1523 3.59766C39.0703 3.59766 38.3398 4.09766 38.2656 4.89453H39.3125C39.4062 4.63672 39.6797 4.49609 40.0898 4.49609C40.5586 4.49609 40.8164 4.69922 40.8164 5.05859V5.41016L39.7734 5.47266C38.7031 5.53516 38.1055 5.98828 38.1055 6.76953C38.1055 7.55859 38.6875 8.06641 39.5156 8.06641ZM43.3789 2.66797V3.73438H42.707V4.62891H43.3789V6.83594C43.3789 7.67578 43.793 8.01562 44.8398 8.01562C45.0586 8.01562 45.2695 7.99219 45.4102 7.96484V7.09766C45.3008 7.10938 45.2227 7.11328 45.0742 7.11328C44.6875 7.11328 44.5156 6.94141 44.5156 6.56641V4.62891H45.4102V3.73438H44.5156V2.66797H43.3789ZM48.1914 4.46875C48.7227 4.46875 49.0664 4.82422 49.0898 5.39453H47.2539C47.293 4.83594 47.6641 4.46875 48.1914 4.46875ZM49.1133 6.77344C48.9922 7.05859 48.6836 7.21875 48.2344 7.21875C47.6406 7.21875 47.2656 6.82031 47.25 6.17969V6.12109H50.207V5.77344C50.207 4.40625 49.457 3.59766 48.1875 3.59766C46.9062 3.59766 46.1172 4.46484 46.1172 5.86719C46.1172 7.26562 46.8906 8.09375 48.2031 8.09375C49.2578 8.09375 50.0039 7.58203 50.1719 6.77344H49.1133Z" fill="#2EDA9C"/>
<circle cx="4.5" cy="5.5" r="4.5" fill="#2EDA9C"/>
<path d="M6 4L3.9375 7L3 5.63636" stroke="white" stroke-linecap="round" stroke-linejoin="round"/>
</svg>
