<?xml version="1.0" standalone="no"?>
<!DOCTYPE svg PUBLIC "-//W3C//DTD SVG 20010904//EN"
 "http://www.w3.org/TR/2001/REC-SVG-20010904/DTD/svg10.dtd">
<svg version="1.0" xmlns="http://www.w3.org/2000/svg"
 width="55.000000pt" height="55.000000pt" viewBox="0 0 55.000000 55.000000"
 preserveAspectRatio="xMidYMid meet">

<g transform="translate(0.000000,55.000000) scale(0.100000,-0.100000)"
fill="#000000" stroke="none">
<path d="M0 448 l0 -103 19 41 c27 60 80 114 136 140 l50 24 -102 0 -103 0 0
-102z"/>
<path d="M386 531 c60 -27 114 -80 140 -136 l24 -50 0 103 0 102 -102 0 -103
0 41 -19z"/>
<path d="M230 531 c-84 -17 -165 -82 -197 -160 -23 -54 -20 -147 7 -203 25
-54 86 -113 139 -135 91 -39 217 -8 287 69 48 54 66 101 66 173 1 160 -148
286 -302 256z m85 -193 c36 -24 65 -50 65 -60 0 -25 -139 -111 -157 -97 -14
12 -20 179 -6 192 13 14 35 6 98 -35z"/>
<path d="M0 103 l0 -103 103 0 102 0 -41 19 c-60 27 -114 80 -140 136 l-24 50
0 -102z"/>
<path d="M532 167 c-19 -52 -81 -117 -136 -143 l-51 -24 103 0 102 0 0 100 c0
55 -1 100 -3 100 -2 0 -8 -15 -15 -33z"/>
</g>
</svg>
