<svg width="22" height="22" viewBox="0 0 22 22" fill="none" xmlns="http://www.w3.org/2000/svg">
<circle cx="11" cy="11" r="11" fill="white" fill-opacity="0.15"/>
<path d="M16.1999 7.20443C15.7733 7.50559 15.301 7.73592 14.8012 7.88657C14.5329 7.57783 14.1764 7.359 13.7798 7.25969C13.3832 7.16037 12.9657 7.18535 12.5837 7.33125C12.2018 7.47716 11.8738 7.73695 11.6442 8.07548C11.4146 8.41401 11.2944 8.81496 11.2999 9.22409V9.66993C10.5171 9.69024 9.74138 9.51647 9.0419 9.1641C8.34242 8.81172 7.74086 8.29167 7.29081 7.65027C7.29081 7.65027 5.50899 11.6628 9.51808 13.4462C8.60068 14.0695 7.50782 14.382 6.3999 14.3379C10.409 16.5671 15.309 14.3379 15.309 9.21071C15.3086 9.08652 15.2967 8.96264 15.2734 8.84067C15.728 8.39192 16.0488 7.82536 16.1999 7.20443Z" fill="white" stroke="white" stroke-linecap="round" stroke-linejoin="round"/>
</svg>
